<svg width="368" height="79" viewBox="0 0 368 79" fill="none" xmlns="http://www.w3.org/2000/svg">
<rect x="342.063" y="23.457" width="12.2858" height="38.7352" fill="white"/>
<rect x="329.131" y="36.3691" width="38.1507" height="12.2322" fill="white"/>
<rect x="264.469" y="3.07031" width="12.9324" height="74.7522" fill="white"/>
<rect x="294.86" y="3.75" width="12.9324" height="74.7522" fill="white"/>
<rect width="13.0476" height="75.8135" transform="matrix(0.902342 -0.431021 0.396947 0.917841 265.762 8.69531)" fill="white"/>
<rect x="203.686" y="3.07031" width="48.4967" height="10.1935" rx="3" fill="#5BC2E7"/>
<rect x="203.686" y="29.5742" width="24.5716" height="10.1935" rx="3" fill="#5BC2E7"/>
<rect width="8.39701" height="71.4086" rx="4" transform="matrix(0.814335 0.580395 -0.542207 0.840245 245.637 13.2637)" fill="#5BC2E7"/>
<rect x="152.702" y="65.2578" width="19.3987" height="12.2322" fill="white"/>
<rect width="12.9525" height="75.4469" transform="matrix(0.983534 -0.180725 0.164112 0.986442 140.317 3.37305)" fill="white"/>
<rect width="12.9625" height="75.2605" transform="matrix(0.97518 0.221413 -0.201358 0.979518 174.224 1.03125)" fill="white"/>
<rect x="69.835" y="0.351562" width="48.4967" height="10.1935" rx="3" fill="#5BC2E7"/>
<rect x="69.835" y="26.8535" width="24.5716" height="10.1935" rx="3" fill="#5BC2E7"/>
<rect width="8.39701" height="71.4086" rx="4" transform="matrix(0.814335 0.580395 -0.542207 0.840245 111.786 10.5449)" fill="#5BC2E7"/>
<rect y="62.8711" width="48.4967" height="12.2322" fill="white"/>
<rect y="26.8535" width="48.4967" height="12.2322" fill="white"/>
<rect y="1.03125" width="48.4967" height="12.2322" fill="white"/>
<rect x="32.3311" y="37.0488" width="16.1656" height="38.0557" fill="white"/>
<rect y="1.03125" width="16.1656" height="38.0557" fill="white"/>
</svg>
